<svg width="300" height="168" viewBox="0 0 300 168" fill="none" xmlns="http://www.w3.org/2000/svg">
<path d="M12.6904 165.116C11.9624 165.116 11.4269 164.937 11.0839 164.58C10.7479 164.216 10.5729 163.677 10.5589 162.963V162.837H11.9554C11.9554 163.243 12.0044 163.533 12.1024 163.708C12.2074 163.883 12.4069 163.971 12.7009 163.971C12.9739 163.971 13.1629 163.841 13.2679 163.582C13.3799 163.316 13.4359 162.861 13.4359 162.217V161.209C13.3379 161.377 13.1874 161.507 12.9844 161.598C12.7814 161.689 12.5399 161.734 12.2599 161.734C11.0699 161.734 10.4749 160.901 10.4749 159.235C10.4749 158.346 10.6499 157.653 10.9999 157.156C11.3569 156.652 11.9204 156.4 12.6904 156.4C13.4464 156.4 14.0064 156.649 14.3704 157.146C14.7344 157.636 14.9164 158.301 14.9164 159.141V162.154C14.9164 163.078 14.7484 163.803 14.4124 164.328C14.0834 164.853 13.5094 165.116 12.6904 165.116ZM12.7009 160.632C13.0159 160.632 13.2609 160.478 13.4359 160.17V158.847C13.4359 158.434 13.3799 158.108 13.2679 157.87C13.1629 157.632 12.9704 157.513 12.6904 157.513C12.4104 157.513 12.2144 157.643 12.1024 157.902C11.9974 158.154 11.9449 158.525 11.9449 159.015C11.9449 159.4 11.9554 159.701 11.9764 159.918C12.0044 160.128 12.0709 160.299 12.1759 160.432C12.2879 160.565 12.4629 160.632 12.7009 160.632ZM19.342 162.91H16.7905V161.671L19.006 156.495H20.6965V161.755H21.568V162.91H20.6965V165H19.342V162.91ZM19.342 161.755V158.059L17.998 161.755H19.342ZM23.331 156.495H24.8745V160.233L26.565 156.495H28.0455L26.418 160.285L28.2135 165H26.67L25.2525 161.136L24.8745 161.776V165H23.331V156.495ZM31.8728 165.116C31.0678 165.116 30.4868 164.867 30.1298 164.37C29.7798 163.866 29.6048 163.141 29.6048 162.196V159.34C29.6048 158.367 29.7868 157.636 30.1508 157.146C30.5148 156.649 31.1413 156.4 32.0303 156.4C32.8703 156.4 33.4723 156.61 33.8363 157.03C34.2003 157.443 34.3823 158.059 34.3823 158.878V159.319H32.9018V158.836C32.9018 158.528 32.8808 158.283 32.8388 158.101C32.8038 157.919 32.7233 157.779 32.5973 157.681C32.4783 157.583 32.2963 157.534 32.0513 157.534C31.7923 157.534 31.5998 157.597 31.4738 157.723C31.3478 157.849 31.2638 158.01 31.2218 158.206C31.1868 158.402 31.1693 158.658 31.1693 158.973V162.532C31.1693 163.015 31.2323 163.376 31.3583 163.614C31.4913 163.852 31.7363 163.971 32.0933 163.971C32.4433 163.971 32.6848 163.845 32.8178 163.593C32.9578 163.341 33.0278 162.963 33.0278 162.459V161.661H32.1143V160.684H34.4243V165H33.4163L33.3113 164.17C33.0453 164.8 32.5658 165.116 31.8728 165.116Z" fill="#A4A4A4"/>
<path d="M267.981 165.116C266.504 165.116 265.766 164.268 265.766 162.574C265.766 161.58 266.105 160.894 266.784 160.516C266.511 160.327 266.294 160.075 266.133 159.76C265.972 159.438 265.892 159.046 265.892 158.584C265.892 157.898 266.07 157.363 266.427 156.978C266.784 156.593 267.302 156.4 267.981 156.4C268.667 156.4 269.185 156.593 269.535 156.978C269.885 157.363 270.06 157.898 270.06 158.584C270.06 159.473 269.766 160.117 269.178 160.516C269.857 160.901 270.197 161.598 270.197 162.606C270.197 164.279 269.458 165.116 267.981 165.116ZM267.981 159.949C268.443 159.942 268.674 159.491 268.674 158.595C268.674 158.259 268.618 157.993 268.506 157.797C268.394 157.601 268.219 157.503 267.981 157.503C267.743 157.503 267.565 157.601 267.446 157.797C267.327 157.993 267.267 158.255 267.267 158.584C267.267 159.487 267.505 159.942 267.981 159.949ZM267.981 164.013C268.303 164.013 268.517 163.88 268.622 163.614C268.727 163.341 268.779 162.984 268.779 162.543C268.779 162.137 268.72 161.811 268.601 161.566C268.489 161.314 268.282 161.185 267.981 161.178C267.68 161.185 267.47 161.321 267.351 161.587C267.232 161.846 267.173 162.189 267.173 162.616C267.173 163.029 267.229 163.365 267.341 163.624C267.453 163.883 267.666 164.013 267.981 164.013ZM274.216 165.126C273.411 165.126 272.851 164.912 272.536 164.485C272.228 164.051 272.074 163.411 272.074 162.564H273.491C273.491 163.047 273.544 163.411 273.649 163.656C273.754 163.901 273.96 164.023 274.268 164.023C274.499 164.023 274.671 163.95 274.783 163.803C274.895 163.649 274.965 163.446 274.993 163.194C275.028 162.935 275.045 162.578 275.045 162.123C275.045 161.563 274.993 161.15 274.888 160.884C274.783 160.618 274.566 160.485 274.237 160.485C274.041 160.485 273.873 160.551 273.733 160.684C273.6 160.817 273.502 160.999 273.439 161.23H272.189L272.273 156.495H276.095V157.797H273.491L273.407 159.844C273.526 159.711 273.698 159.606 273.922 159.529C274.146 159.445 274.391 159.403 274.657 159.403C275.259 159.403 275.703 159.634 275.99 160.096C276.284 160.551 276.431 161.195 276.431 162.028C276.431 162.679 276.368 163.229 276.242 163.677C276.123 164.125 275.903 164.478 275.581 164.737C275.259 164.996 274.804 165.126 274.216 165.126ZM278.365 156.495H279.908V160.233L281.599 156.495H283.079L281.452 160.285L283.247 165H281.704L280.286 161.136L279.908 161.776V165H278.365V156.495ZM286.907 165.116C286.102 165.116 285.521 164.867 285.164 164.37C284.814 163.866 284.639 163.141 284.639 162.196V159.34C284.639 158.367 284.821 157.636 285.185 157.146C285.549 156.649 286.175 156.4 287.064 156.4C287.904 156.4 288.506 156.61 288.87 157.03C289.234 157.443 289.416 158.059 289.416 158.878V159.319H287.936V158.836C287.936 158.528 287.915 158.283 287.873 158.101C287.838 157.919 287.757 157.779 287.631 157.681C287.512 157.583 287.33 157.534 287.085 157.534C286.826 157.534 286.634 157.597 286.508 157.723C286.382 157.849 286.298 158.01 286.256 158.206C286.221 158.402 286.203 158.658 286.203 158.973V162.532C286.203 163.015 286.266 163.376 286.392 163.614C286.525 163.852 286.77 163.971 287.127 163.971C287.477 163.971 287.719 163.845 287.852 163.593C287.992 163.341 288.062 162.963 288.062 162.459V161.661H287.148V160.684H289.458V165H288.45L288.345 164.17C288.079 164.8 287.6 165.116 286.907 165.116Z" fill="#A4A4A4"/>
<rect width="300" height="1" transform="matrix(1 0 0 -1 0 144)" fill="#383847"/>
<rect opacity="0.3" x="265.666" width="1.1257" height="144.09" fill="#383847"/>
<rect opacity="0.3" x="66.4166" width="1.1257" height="144.09" fill="#383847"/>
<rect opacity="0.3" x="99.6248" width="1.1257" height="144.09" fill="#383847"/>
<rect opacity="0.3" x="166.041" width="1.1257" height="144.09" fill="#383847"/>
<rect opacity="0.3" x="232.458" width="1.1257" height="144.09" fill="#383847"/>
<rect opacity="0.3" x="199.25" width="1.1257" height="144.09" fill="#383847"/>
<rect opacity="0.3" x="33.2083" width="1.1257" height="144.09" fill="#383847"/>
<rect opacity="0.3" x="132.833" width="1.1257" height="144.09" fill="#383847"/>
<path d="M247.475 73.1274C269.312 69.6626 290.947 77.2179 299.034 81.4287V120.769H0.597778V42.2139C24.8609 43.6576 84.063 86.6259 126.766 90.0908C180.145 94.4219 220.179 77.4585 247.475 73.1274Z" fill="url(#paint0_linear_458_3)" fill-opacity="0.2"/>
<path d="M299.034 81.4463C290.947 77.2275 269.312 69.6577 247.475 73.1292C220.179 77.4685 180.145 94.4644 126.766 90.125C84.063 86.6535 24.8609 43.678 0.59778 42.2315" stroke="#BDE864" stroke-width="1.45665"/>
<defs>
<linearGradient id="paint0_linear_458_3" x1="149.816" y1="42.2139" x2="149.816" y2="120.769" gradientUnits="userSpaceOnUse">
<stop stop-color="#BDE864"/>
<stop offset="1" stop-color="#BDE864" stop-opacity="0"/>
</linearGradient>
</defs>
</svg>
