<svg width="320" height="315" viewBox="0 0 320 315" fill="none" xmlns="http://www.w3.org/2000/svg">
<rect width="270" height="1" transform="matrix(1 0 0 -1 25 172)" fill="#383847"/>
<path d="M295 171C295 135.196 280.777 100.858 255.459 75.5406C230.142 50.2232 195.804 36 160 36C124.196 36 89.858 50.2232 64.5406 75.5406C39.2232 100.858 25 135.196 25 171L160 171H295Z" fill="#282833"/>
<path d="M285 171C285 137.718 271.83 105.799 248.388 82.265C224.946 58.7311 193.152 45.5098 160 45.5098C126.848 45.5098 95.0537 58.731 71.6117 82.265C48.1696 105.799 35 137.718 35 171L160 171H285Z" fill="#11141E"/>
<path d="M285 171C285 149.058 279.224 127.502 268.253 108.5L160 171H285Z" fill="#761EE5"/>
<path d="M35 171C35 149.058 40.7758 127.502 51.7468 108.5L160 171H35Z" fill="#248AC4"/>
<path d="M51.7468 108.5C62.7179 89.4976 78.4976 73.7179 97.5 62.7468L160 171L51.7468 108.5Z" fill="#78C322"/>
<path d="M97.5 62.7468C116.502 51.7758 138.058 46 160 46L160 171L97.5 62.7468Z" fill="#E8B80A"/>
<path d="M160 46C181.942 46 203.498 51.7758 222.5 62.7468L160 171L160 46Z" fill="#EA790A"/>
<path d="M222.5 62.7468C241.502 73.7179 257.282 89.4976 268.253 108.5L160 171L222.5 62.7468Z" fill="#E22C21"/>
<path d="M285 171C285 137.718 271.83 105.799 248.388 82.265C224.946 58.7311 193.152 45.5098 160 45.5098C126.848 45.5098 95.0537 58.731 71.6117 82.265C48.1696 105.799 35 137.718 35 171L160 171H285Z" fill="url(#paint0_radial_113_538)"/>
<path d="M258 171C258 145.009 247.675 120.082 229.296 101.704C210.918 83.325 185.991 73 160 73C134.009 73 109.082 83.325 90.7035 101.704C72.325 120.082 62 145.009 62 171L160 171H258Z" fill="#282833"/>
<rect x="159" y="73" width="1" height="98" fill="#383847"/>
<rect x="208.142" y="85.7877" width="1" height="98.2837" transform="rotate(30 208.142 85.7877)" fill="#383847"/>
<rect x="244.007" y="120.977" width="1" height="98.0466" transform="rotate(60 244.007 120.977)" fill="#383847"/>
<rect width="1" height="97.9374" transform="matrix(-0.866025 0.5 0.5 0.866025 111.031 86.0876)" fill="#383847"/>
<rect width="1" height="97.2053" transform="matrix(-0.5 0.866025 0.866025 0.5 75.7216 121.397)" fill="#383847"/>
<circle cx="160" cy="172" r="16.5" fill="#282833" stroke="#383847"/>
<g filter="url(#filter0_d_113_538)">
<path d="M83.2159 64.7154L167.376 173.975L156.39 176.925L83.2159 64.7154Z" fill="white"/>
<circle cx="160" cy="172" r="11" fill="white"/>
</g>
<path d="M42.21 208L43.911 199.495H45.57L47.271 208H45.8325L45.4965 206.036H44.016L43.6695 208H42.21ZM44.1735 205.049H45.3285L44.751 201.479L44.1735 205.049ZM49.0713 208V199.495H51.1608C51.5388 199.495 51.8783 199.53 52.1793 199.6C52.4873 199.67 52.7498 199.789 52.9668 199.957C53.1908 200.118 53.3623 200.338 53.4813 200.618C53.6003 200.898 53.6598 201.252 53.6598 201.679C53.6598 202.022 53.6108 202.316 53.5128 202.561C53.4218 202.806 53.2853 203.002 53.1033 203.149C52.9213 203.289 52.6938 203.383 52.4208 203.432C52.7568 203.488 53.0333 203.607 53.2503 203.789C53.4743 203.964 53.6388 204.195 53.7438 204.482C53.8558 204.769 53.9118 205.116 53.9118 205.522C53.9118 205.928 53.8593 206.288 53.7543 206.603C53.6563 206.911 53.5058 207.17 53.3028 207.38C53.1068 207.583 52.8583 207.737 52.5573 207.842C52.2633 207.947 51.9168 208 51.5178 208H49.0713ZM50.6253 206.908H51.2133C51.6823 206.908 52.0008 206.796 52.1688 206.572C52.3368 206.341 52.4208 205.987 52.4208 205.511C52.4208 205.168 52.3788 204.892 52.2948 204.682C52.2178 204.465 52.0848 204.304 51.8958 204.199C51.7138 204.094 51.4688 204.041 51.1608 204.041H50.6253V206.908ZM50.6253 202.97H51.1503C51.4583 202.97 51.6963 202.925 51.8643 202.834C52.0323 202.743 52.1478 202.603 52.2108 202.414C52.2808 202.225 52.3158 201.987 52.3158 201.7C52.3158 201.399 52.2633 201.168 52.1583 201.007C52.0603 200.839 51.9098 200.727 51.7068 200.671C51.5038 200.608 51.2448 200.576 50.9298 200.576H50.6253V202.97ZM55.4203 208L57.1213 199.495H58.7803L60.4813 208H59.0428L58.7068 206.036H57.2263L56.8798 208H55.4203ZM57.3838 205.049H58.5388L57.9613 201.479L57.3838 205.049ZM62.3237 208V199.495H63.8567V208H62.3237ZM65.5828 208L67.2943 203.485L65.6353 199.495H67.0843L68.1868 202.13L69.1528 199.495H70.4968L68.8588 203.779L70.6228 208H69.1738L67.9663 205.144L66.9163 208H65.5828ZM74.531 208.116C73.929 208.116 73.4495 208.004 73.0925 207.779C72.7355 207.555 72.48 207.233 72.326 206.813C72.172 206.393 72.095 205.896 72.095 205.322V202.141C72.095 201.567 72.172 201.077 72.326 200.671C72.48 200.258 72.7355 199.943 73.0925 199.726C73.4495 199.509 73.929 199.4 74.531 199.4C75.147 199.4 75.63 199.509 75.98 199.726C76.337 199.943 76.5925 200.258 76.7465 200.671C76.9075 201.077 76.988 201.567 76.988 202.141V205.333C76.988 205.9 76.9075 206.393 76.7465 206.813C76.5925 207.226 76.337 207.548 75.98 207.779C75.63 208.004 75.147 208.116 74.531 208.116ZM74.531 206.971C74.79 206.971 74.979 206.915 75.098 206.803C75.224 206.691 75.308 206.537 75.35 206.341C75.392 206.145 75.413 205.931 75.413 205.7V201.784C75.413 201.546 75.392 201.332 75.35 201.143C75.308 200.954 75.224 200.807 75.098 200.702C74.979 200.59 74.79 200.534 74.531 200.534C74.286 200.534 74.1005 200.59 73.9745 200.702C73.8485 200.807 73.7645 200.954 73.7225 201.143C73.6805 201.332 73.6595 201.546 73.6595 201.784V205.7C73.6595 205.931 73.677 206.145 73.712 206.341C73.754 206.537 73.838 206.691 73.964 206.803C74.09 206.915 74.279 206.971 74.531 206.971Z" fill="#A4A4A4"/>
<path d="M44.9505 232.116C44.3485 232.116 43.869 232.004 43.512 231.779C43.155 231.555 42.8995 231.233 42.7455 230.813C42.5915 230.393 42.5145 229.896 42.5145 229.322V226.141C42.5145 225.567 42.5915 225.077 42.7455 224.671C42.8995 224.258 43.155 223.943 43.512 223.726C43.869 223.509 44.3485 223.4 44.9505 223.4C45.5665 223.4 46.0495 223.509 46.3995 223.726C46.7565 223.943 47.012 224.258 47.166 224.671C47.327 225.077 47.4075 225.567 47.4075 226.141V229.333C47.4075 229.9 47.327 230.393 47.166 230.813C47.012 231.226 46.7565 231.548 46.3995 231.779C46.0495 232.004 45.5665 232.116 44.9505 232.116ZM44.9505 230.971C45.2095 230.971 45.3985 230.915 45.5175 230.803C45.6435 230.691 45.7275 230.537 45.7695 230.341C45.8115 230.145 45.8325 229.931 45.8325 229.7V225.784C45.8325 225.546 45.8115 225.332 45.7695 225.143C45.7275 224.954 45.6435 224.807 45.5175 224.702C45.3985 224.59 45.2095 224.534 44.9505 224.534C44.7055 224.534 44.52 224.59 44.394 224.702C44.268 224.807 44.184 224.954 44.142 225.143C44.1 225.332 44.079 225.546 44.079 225.784V229.7C44.079 229.931 44.0965 230.145 44.1315 230.341C44.1735 230.537 44.2575 230.691 44.3835 230.803C44.5095 230.915 44.6985 230.971 44.9505 230.971ZM49.502 232V223.495H51.5915C51.9695 223.495 52.309 223.53 52.61 223.6C52.918 223.67 53.1805 223.789 53.3975 223.957C53.6215 224.118 53.793 224.338 53.912 224.618C54.031 224.898 54.0905 225.252 54.0905 225.679C54.0905 226.022 54.0415 226.316 53.9435 226.561C53.8525 226.806 53.716 227.002 53.534 227.149C53.352 227.289 53.1245 227.383 52.8515 227.432C53.1875 227.488 53.464 227.607 53.681 227.789C53.905 227.964 54.0695 228.195 54.1745 228.482C54.2865 228.769 54.3425 229.116 54.3425 229.522C54.3425 229.928 54.29 230.288 54.185 230.603C54.087 230.911 53.9365 231.17 53.7335 231.38C53.5375 231.583 53.289 231.737 52.988 231.842C52.694 231.947 52.3475 232 51.9485 232H49.502ZM51.056 230.908H51.644C52.113 230.908 52.4315 230.796 52.5995 230.572C52.7675 230.341 52.8515 229.987 52.8515 229.511C52.8515 229.168 52.8095 228.892 52.7255 228.682C52.6485 228.465 52.5155 228.304 52.3265 228.199C52.1445 228.094 51.8995 228.041 51.5915 228.041H51.056V230.908ZM51.056 226.97H51.581C51.889 226.97 52.127 226.925 52.295 226.834C52.463 226.743 52.5785 226.603 52.6415 226.414C52.7115 226.225 52.7465 225.987 52.7465 225.7C52.7465 225.399 52.694 225.168 52.589 225.007C52.491 224.839 52.3405 224.727 52.1375 224.671C51.9345 224.608 51.6755 224.576 51.3605 224.576H51.056V226.97ZM56.2917 232V223.495H59.8617V224.587H57.8457V227.033H59.4312V228.115H57.8457V230.929H59.8827V232H56.2917ZM63.8699 232.116C63.3589 232.116 62.9319 232.018 62.5889 231.821C62.2459 231.618 61.9869 231.324 61.8119 230.939C61.6369 230.554 61.5389 230.082 61.5179 229.522L62.8514 229.259C62.8654 229.588 62.9039 229.879 62.9669 230.131C63.0369 230.383 63.1384 230.579 63.2714 230.719C63.4114 230.852 63.5934 230.918 63.8174 230.918C64.0694 230.918 64.2479 230.845 64.3529 230.698C64.4579 230.544 64.5104 230.351 64.5104 230.12C64.5104 229.749 64.4264 229.445 64.2584 229.207C64.0904 228.969 63.8664 228.731 63.5864 228.493L62.5154 227.548C62.2144 227.289 61.9729 227.002 61.7909 226.687C61.6159 226.365 61.5284 225.969 61.5284 225.5C61.5284 224.828 61.7244 224.31 62.1164 223.946C62.5084 223.582 63.0439 223.4 63.7229 223.4C64.1219 223.4 64.4544 223.463 64.7204 223.589C64.9864 223.708 65.1964 223.876 65.3504 224.093C65.5114 224.31 65.6304 224.559 65.7074 224.839C65.7844 225.112 65.8334 225.402 65.8544 225.71L64.5314 225.941C64.5174 225.675 64.4859 225.437 64.4369 225.227C64.3949 225.017 64.3144 224.853 64.1954 224.734C64.0834 224.615 63.9154 224.555 63.6914 224.555C63.4604 224.555 63.2819 224.632 63.1559 224.786C63.0369 224.933 62.9774 225.119 62.9774 225.343C62.9774 225.63 63.0369 225.868 63.1559 226.057C63.2749 226.239 63.4464 226.428 63.6704 226.624L64.7309 227.558C65.0809 227.852 65.3784 228.199 65.6234 228.598C65.8754 228.99 66.0014 229.466 66.0014 230.026C66.0014 230.432 65.9104 230.792 65.7284 231.107C65.5534 231.422 65.3049 231.671 64.9829 231.853C64.6679 232.028 64.2969 232.116 63.8699 232.116ZM67.9034 232V223.495H69.4364V232H67.9034ZM71.698 232V223.495H73.7035C74.3965 223.495 74.9355 223.589 75.3205 223.778C75.7125 223.967 75.989 224.258 76.15 224.65C76.318 225.042 76.402 225.539 76.402 226.141V229.249C76.402 229.865 76.318 230.379 76.15 230.792C75.989 231.198 75.716 231.503 75.331 231.706C74.953 231.902 74.4315 232 73.7665 232H71.698ZM73.252 230.918H73.7245C74.0815 230.918 74.337 230.855 74.491 230.729C74.645 230.603 74.7395 230.421 74.7745 230.183C74.8095 229.938 74.827 229.641 74.827 229.291V226.036C74.827 225.693 74.8025 225.416 74.7535 225.206C74.7045 224.996 74.603 224.842 74.449 224.744C74.295 224.646 74.0465 224.597 73.7035 224.597H73.252V230.918ZM77.9957 232L79.6967 223.495H81.3557L83.0567 232H81.6182L81.2822 230.036H79.8017L79.4552 232H77.9957ZM79.9592 229.049H81.1142L80.5367 225.479L79.9592 229.049ZM84.8571 232V223.495H86.8626C87.5556 223.495 88.0946 223.589 88.4796 223.778C88.8716 223.967 89.1481 224.258 89.3091 224.65C89.4771 225.042 89.5611 225.539 89.5611 226.141V229.249C89.5611 229.865 89.4771 230.379 89.3091 230.792C89.1481 231.198 88.8751 231.503 88.4901 231.706C88.1121 231.902 87.5906 232 86.9256 232H84.8571ZM86.4111 230.918H86.8836C87.2406 230.918 87.4961 230.855 87.6501 230.729C87.8041 230.603 87.8986 230.421 87.9336 230.183C87.9686 229.938 87.9861 229.641 87.9861 229.291V226.036C87.9861 225.693 87.9616 225.416 87.9126 225.206C87.8636 224.996 87.7621 224.842 87.6081 224.744C87.4541 224.646 87.2056 224.597 86.8626 224.597H86.4111V230.918ZM91.6468 232V223.495H95.2168V224.587H93.2008V227.033H94.7863V228.115H93.2008V230.929H95.2378V232H91.6468Z" fill="#A4A4A4"/>
<path d="M132.641 208V199.495H133.722L135.791 204.346V199.495H137.072V208H136.043L133.964 202.918V208H132.641ZM141.617 208.116C141.015 208.116 140.536 208.004 140.179 207.779C139.822 207.555 139.566 207.233 139.412 206.813C139.258 206.393 139.181 205.896 139.181 205.322V202.141C139.181 201.567 139.258 201.077 139.412 200.671C139.566 200.258 139.822 199.943 140.179 199.726C140.536 199.509 141.015 199.4 141.617 199.4C142.233 199.4 142.716 199.509 143.066 199.726C143.423 199.943 143.679 200.258 143.833 200.671C143.994 201.077 144.074 201.567 144.074 202.141V205.333C144.074 205.9 143.994 206.393 143.833 206.813C143.679 207.226 143.423 207.548 143.066 207.779C142.716 208.004 142.233 208.116 141.617 208.116ZM141.617 206.971C141.876 206.971 142.065 206.915 142.184 206.803C142.31 206.691 142.394 206.537 142.436 206.341C142.478 206.145 142.499 205.931 142.499 205.7V201.784C142.499 201.546 142.478 201.332 142.436 201.143C142.394 200.954 142.31 200.807 142.184 200.702C142.065 200.59 141.876 200.534 141.617 200.534C141.372 200.534 141.187 200.59 141.061 200.702C140.935 200.807 140.851 200.954 140.809 201.143C140.767 201.332 140.746 201.546 140.746 201.784V205.7C140.746 205.931 140.763 206.145 140.798 206.341C140.84 206.537 140.924 206.691 141.05 206.803C141.176 206.915 141.365 206.971 141.617 206.971ZM146.169 208V199.495H148.206C148.78 199.495 149.263 199.565 149.655 199.705C150.054 199.838 150.355 200.069 150.558 200.398C150.768 200.727 150.873 201.175 150.873 201.742C150.873 202.085 150.841 202.393 150.778 202.666C150.715 202.939 150.607 203.173 150.453 203.369C150.306 203.558 150.099 203.705 149.833 203.81L151.02 208H149.466L148.437 204.104H147.723V208H146.169ZM147.723 203.128H148.206C148.507 203.128 148.745 203.086 148.92 203.002C149.102 202.911 149.231 202.771 149.308 202.582C149.385 202.386 149.424 202.137 149.424 201.836C149.424 201.409 149.343 201.091 149.182 200.881C149.028 200.664 148.731 200.555 148.29 200.555H147.723V203.128ZM152.978 208L153.125 199.495H154.732L155.939 205.385L157.199 199.495H158.753L158.911 208H157.756L157.63 202.088L156.422 208H155.488L154.259 202.068L154.144 208H152.978ZM160.681 208L162.382 199.495H164.041L165.742 208H164.304L163.968 206.036H162.487L162.141 208H160.681ZM162.645 205.049H163.8L163.222 201.479L162.645 205.049ZM167.543 208V199.495H169.097V206.929H171.155V208H167.543Z" fill="#A4A4A4"/>
<path d="M134.951 232.116C134.349 232.116 133.869 232.004 133.512 231.779C133.155 231.555 132.9 231.233 132.746 230.813C132.592 230.393 132.515 229.896 132.515 229.322V226.141C132.515 225.567 132.592 225.077 132.746 224.671C132.9 224.258 133.155 223.943 133.512 223.726C133.869 223.509 134.349 223.4 134.951 223.4C135.567 223.4 136.05 223.509 136.4 223.726C136.757 223.943 137.012 224.258 137.166 224.671C137.327 225.077 137.408 225.567 137.408 226.141V229.333C137.408 229.9 137.327 230.393 137.166 230.813C137.012 231.226 136.757 231.548 136.4 231.779C136.05 232.004 135.567 232.116 134.951 232.116ZM134.951 230.971C135.21 230.971 135.399 230.915 135.518 230.803C135.644 230.691 135.728 230.537 135.77 230.341C135.812 230.145 135.833 229.931 135.833 229.7V225.784C135.833 225.546 135.812 225.332 135.77 225.143C135.728 224.954 135.644 224.807 135.518 224.702C135.399 224.59 135.21 224.534 134.951 224.534C134.706 224.534 134.52 224.59 134.394 224.702C134.268 224.807 134.184 224.954 134.142 225.143C134.1 225.332 134.079 225.546 134.079 225.784V229.7C134.079 229.931 134.097 230.145 134.132 230.341C134.174 230.537 134.258 230.691 134.384 230.803C134.51 230.915 134.699 230.971 134.951 230.971ZM139.502 232V223.495H141.592C141.97 223.495 142.309 223.53 142.61 223.6C142.918 223.67 143.181 223.789 143.398 223.957C143.622 224.118 143.793 224.338 143.912 224.618C144.031 224.898 144.091 225.252 144.091 225.679C144.091 226.022 144.042 226.316 143.944 226.561C143.853 226.806 143.716 227.002 143.534 227.149C143.352 227.289 143.125 227.383 142.852 227.432C143.188 227.488 143.464 227.607 143.681 227.789C143.905 227.964 144.07 228.195 144.175 228.482C144.287 228.769 144.343 229.116 144.343 229.522C144.343 229.928 144.29 230.288 144.185 230.603C144.087 230.911 143.937 231.17 143.734 231.38C143.538 231.583 143.289 231.737 142.988 231.842C142.694 231.947 142.348 232 141.949 232H139.502ZM141.056 230.908H141.644C142.113 230.908 142.432 230.796 142.6 230.572C142.768 230.341 142.852 229.987 142.852 229.511C142.852 229.168 142.81 228.892 142.726 228.682C142.649 228.465 142.516 228.304 142.327 228.199C142.145 228.094 141.9 228.041 141.592 228.041H141.056V230.908ZM141.056 226.97H141.581C141.889 226.97 142.127 226.925 142.295 226.834C142.463 226.743 142.579 226.603 142.642 226.414C142.712 226.225 142.747 225.987 142.747 225.7C142.747 225.399 142.694 225.168 142.589 225.007C142.491 224.839 142.341 224.727 142.138 224.671C141.935 224.608 141.676 224.576 141.361 224.576H141.056V226.97ZM146.292 232V223.495H149.862V224.587H147.846V227.033H149.431V228.115H147.846V230.929H149.883V232H146.292ZM153.87 232.116C153.359 232.116 152.932 232.018 152.589 231.821C152.246 231.618 151.987 231.324 151.812 230.939C151.637 230.554 151.539 230.082 151.518 229.522L152.851 229.259C152.865 229.588 152.904 229.879 152.967 230.131C153.037 230.383 153.138 230.579 153.271 230.719C153.411 230.852 153.593 230.918 153.817 230.918C154.069 230.918 154.248 230.845 154.353 230.698C154.458 230.544 154.51 230.351 154.51 230.12C154.51 229.749 154.426 229.445 154.258 229.207C154.09 228.969 153.866 228.731 153.586 228.493L152.515 227.548C152.214 227.289 151.973 227.002 151.791 226.687C151.616 226.365 151.528 225.969 151.528 225.5C151.528 224.828 151.724 224.31 152.116 223.946C152.508 223.582 153.044 223.4 153.723 223.4C154.122 223.4 154.454 223.463 154.72 223.589C154.986 223.708 155.196 223.876 155.35 224.093C155.511 224.31 155.63 224.559 155.707 224.839C155.784 225.112 155.833 225.402 155.854 225.71L154.531 225.941C154.517 225.675 154.486 225.437 154.437 225.227C154.395 225.017 154.314 224.853 154.195 224.734C154.083 224.615 153.915 224.555 153.691 224.555C153.46 224.555 153.282 224.632 153.156 224.786C153.037 224.933 152.977 225.119 152.977 225.343C152.977 225.63 153.037 225.868 153.156 226.057C153.275 226.239 153.446 226.428 153.67 226.624L154.731 227.558C155.081 227.852 155.378 228.199 155.623 228.598C155.875 228.99 156.001 229.466 156.001 230.026C156.001 230.432 155.91 230.792 155.728 231.107C155.553 231.422 155.305 231.671 154.983 231.853C154.668 232.028 154.297 232.116 153.87 232.116ZM157.903 232V223.495H159.436V232H157.903ZM161.698 232V223.495H163.704C164.397 223.495 164.936 223.589 165.321 223.778C165.713 223.967 165.989 224.258 166.15 224.65C166.318 225.042 166.402 225.539 166.402 226.141V229.249C166.402 229.865 166.318 230.379 166.15 230.792C165.989 231.198 165.716 231.503 165.331 231.706C164.953 231.902 164.432 232 163.767 232H161.698ZM163.252 230.918H163.725C164.082 230.918 164.337 230.855 164.491 230.729C164.645 230.603 164.74 230.421 164.775 230.183C164.81 229.938 164.827 229.641 164.827 229.291V226.036C164.827 225.693 164.803 225.416 164.754 225.206C164.705 224.996 164.603 224.842 164.449 224.744C164.295 224.646 164.047 224.597 163.704 224.597H163.252V230.918ZM167.996 232L169.697 223.495H171.356L173.057 232H171.618L171.282 230.036H169.802L169.455 232H167.996ZM169.959 229.049H171.114L170.537 225.479L169.959 229.049ZM174.857 232V223.495H176.863C177.556 223.495 178.095 223.589 178.48 223.778C178.872 223.967 179.148 224.258 179.309 224.65C179.477 225.042 179.561 225.539 179.561 226.141V229.249C179.561 229.865 179.477 230.379 179.309 230.792C179.148 231.198 178.875 231.503 178.49 231.706C178.112 231.902 177.591 232 176.926 232H174.857ZM176.411 230.918H176.884C177.241 230.918 177.496 230.855 177.65 230.729C177.804 230.603 177.899 230.421 177.934 230.183C177.969 229.938 177.986 229.641 177.986 229.291V226.036C177.986 225.693 177.962 225.416 177.913 225.206C177.864 224.996 177.762 224.842 177.608 224.744C177.454 224.646 177.206 224.597 176.863 224.597H176.411V230.918ZM181.647 232V223.495H185.217V224.587H183.201V227.033H184.786V228.115H183.201V230.929H185.238V232H181.647ZM190.623 232V223.495H192.156V232H190.623ZM194.46 232V223.495H195.993V232H194.46Z" fill="#A4A4A4"/>
<path d="M234.783 208.116C234.272 208.116 233.845 208.018 233.502 207.821C233.159 207.618 232.9 207.324 232.725 206.939C232.55 206.554 232.452 206.082 232.431 205.522L233.764 205.259C233.778 205.588 233.817 205.879 233.88 206.131C233.95 206.383 234.051 206.579 234.184 206.719C234.324 206.852 234.506 206.918 234.73 206.918C234.982 206.918 235.161 206.845 235.266 206.698C235.371 206.544 235.423 206.351 235.423 206.12C235.423 205.749 235.339 205.445 235.171 205.207C235.003 204.969 234.779 204.731 234.499 204.493L233.428 203.548C233.127 203.289 232.886 203.002 232.704 202.687C232.529 202.365 232.441 201.969 232.441 201.5C232.441 200.828 232.637 200.31 233.029 199.946C233.421 199.582 233.957 199.4 234.636 199.4C235.035 199.4 235.367 199.463 235.633 199.589C235.899 199.708 236.109 199.876 236.263 200.093C236.424 200.31 236.543 200.559 236.62 200.839C236.697 201.112 236.746 201.402 236.767 201.71L235.444 201.941C235.43 201.675 235.399 201.437 235.35 201.227C235.308 201.017 235.227 200.853 235.108 200.734C234.996 200.615 234.828 200.555 234.604 200.555C234.373 200.555 234.195 200.632 234.069 200.786C233.95 200.933 233.89 201.119 233.89 201.343C233.89 201.63 233.95 201.868 234.069 202.057C234.188 202.239 234.359 202.428 234.583 202.624L235.644 203.558C235.994 203.852 236.291 204.199 236.536 204.598C236.788 204.99 236.914 205.466 236.914 206.026C236.914 206.432 236.823 206.792 236.641 207.107C236.466 207.422 236.218 207.671 235.896 207.853C235.581 208.028 235.21 208.116 234.783 208.116ZM241.084 208.116C240.482 208.116 240.002 208.004 239.645 207.779C239.288 207.555 239.033 207.233 238.879 206.813C238.725 206.393 238.648 205.896 238.648 205.322V202.141C238.648 201.567 238.725 201.077 238.879 200.671C239.033 200.258 239.288 199.943 239.645 199.726C240.002 199.509 240.482 199.4 241.084 199.4C241.7 199.4 242.183 199.509 242.533 199.726C242.89 199.943 243.145 200.258 243.299 200.671C243.46 201.077 243.541 201.567 243.541 202.141V205.333C243.541 205.9 243.46 206.393 243.299 206.813C243.145 207.226 242.89 207.548 242.533 207.779C242.183 208.004 241.7 208.116 241.084 208.116ZM241.084 206.971C241.343 206.971 241.532 206.915 241.651 206.803C241.777 206.691 241.861 206.537 241.903 206.341C241.945 206.145 241.966 205.931 241.966 205.7V201.784C241.966 201.546 241.945 201.332 241.903 201.143C241.861 200.954 241.777 200.807 241.651 200.702C241.532 200.59 241.343 200.534 241.084 200.534C240.839 200.534 240.653 200.59 240.527 200.702C240.401 200.807 240.317 200.954 240.275 201.143C240.233 201.332 240.212 201.546 240.212 201.784V205.7C240.212 205.931 240.23 206.145 240.265 206.341C240.307 206.537 240.391 206.691 240.517 206.803C240.643 206.915 240.832 206.971 241.084 206.971ZM245.635 208V199.495H247.725C248.103 199.495 248.442 199.53 248.743 199.6C249.051 199.67 249.314 199.789 249.531 199.957C249.755 200.118 249.926 200.338 250.045 200.618C250.164 200.898 250.224 201.252 250.224 201.679C250.224 202.022 250.175 202.316 250.077 202.561C249.986 202.806 249.849 203.002 249.667 203.149C249.485 203.289 249.258 203.383 248.985 203.432C249.321 203.488 249.597 203.607 249.814 203.789C250.038 203.964 250.203 204.195 250.308 204.482C250.42 204.769 250.476 205.116 250.476 205.522C250.476 205.928 250.423 206.288 250.318 206.603C250.22 206.911 250.07 207.17 249.867 207.38C249.671 207.583 249.422 207.737 249.121 207.842C248.827 207.947 248.481 208 248.082 208H245.635ZM247.189 206.908H247.777C248.246 206.908 248.565 206.796 248.733 206.572C248.901 206.341 248.985 205.987 248.985 205.511C248.985 205.168 248.943 204.892 248.859 204.682C248.782 204.465 248.649 204.304 248.46 204.199C248.278 204.094 248.033 204.041 247.725 204.041H247.189V206.908ZM247.189 202.97H247.714C248.022 202.97 248.26 202.925 248.428 202.834C248.596 202.743 248.712 202.603 248.775 202.414C248.845 202.225 248.88 201.987 248.88 201.7C248.88 201.399 248.827 201.168 248.722 201.007C248.624 200.839 248.474 200.727 248.271 200.671C248.068 200.608 247.809 200.576 247.494 200.576H247.189V202.97ZM252.425 208V199.495H254.462C255.036 199.495 255.519 199.565 255.911 199.705C256.31 199.838 256.611 200.069 256.814 200.398C257.024 200.727 257.129 201.175 257.129 201.742C257.129 202.085 257.098 202.393 257.035 202.666C256.972 202.939 256.863 203.173 256.709 203.369C256.562 203.558 256.356 203.705 256.09 203.81L257.276 208H255.722L254.693 204.104H253.979V208H252.425ZM253.979 203.128H254.462C254.763 203.128 255.001 203.086 255.176 203.002C255.358 202.911 255.488 202.771 255.565 202.582C255.642 202.386 255.68 202.137 255.68 201.836C255.68 201.409 255.6 201.091 255.439 200.881C255.285 200.664 254.987 200.555 254.546 200.555H253.979V203.128ZM259.256 208V199.495H262.826V200.587H260.81V203.033H262.395V204.115H260.81V206.929H262.847V208H259.256ZM264.692 208V199.495H267.191C267.702 199.495 268.115 199.589 268.43 199.778C268.752 199.967 268.987 200.244 269.134 200.608C269.288 200.965 269.365 201.399 269.365 201.91C269.365 202.463 269.27 202.911 269.081 203.254C268.892 203.59 268.626 203.835 268.283 203.989C267.947 204.143 267.548 204.22 267.086 204.22H266.246V208H264.692ZM266.246 203.128H266.834C267.114 203.128 267.331 203.089 267.485 203.012C267.646 202.928 267.755 202.799 267.811 202.624C267.874 202.442 267.905 202.2 267.905 201.899C267.905 201.591 267.881 201.343 267.832 201.154C267.79 200.958 267.692 200.814 267.538 200.723C267.391 200.632 267.156 200.587 266.834 200.587H266.246V203.128ZM271.174 208V199.495H274.744V200.587H272.728V203.033H274.314V204.115H272.728V206.929H274.765V208H271.174ZM278.752 208.116C278.241 208.116 277.814 208.018 277.471 207.821C277.128 207.618 276.869 207.324 276.694 206.939C276.519 206.554 276.421 206.082 276.4 205.522L277.734 205.259C277.748 205.588 277.786 205.879 277.849 206.131C277.919 206.383 278.021 206.579 278.154 206.719C278.294 206.852 278.476 206.918 278.7 206.918C278.952 206.918 279.13 206.845 279.235 206.698C279.34 206.544 279.393 206.351 279.393 206.12C279.393 205.749 279.309 205.445 279.141 205.207C278.973 204.969 278.749 204.731 278.469 204.493L277.398 203.548C277.097 203.289 276.855 203.002 276.673 202.687C276.498 202.365 276.411 201.969 276.411 201.5C276.411 200.828 276.607 200.31 276.999 199.946C277.391 199.582 277.926 199.4 278.605 199.4C279.004 199.4 279.337 199.463 279.603 199.589C279.869 199.708 280.079 199.876 280.233 200.093C280.394 200.31 280.513 200.559 280.59 200.839C280.667 201.112 280.716 201.402 280.737 201.71L279.414 201.941C279.4 201.675 279.368 201.437 279.319 201.227C279.277 201.017 279.197 200.853 279.078 200.734C278.966 200.615 278.798 200.555 278.574 200.555C278.343 200.555 278.164 200.632 278.038 200.786C277.919 200.933 277.86 201.119 277.86 201.343C277.86 201.63 277.919 201.868 278.038 202.057C278.157 202.239 278.329 202.428 278.553 202.624L279.613 203.558C279.963 203.852 280.261 204.199 280.506 204.598C280.758 204.99 280.884 205.466 280.884 206.026C280.884 206.432 280.793 206.792 280.611 207.107C280.436 207.422 280.187 207.671 279.865 207.853C279.55 208.028 279.179 208.116 278.752 208.116ZM285.054 208.116C284.452 208.116 283.972 208.004 283.615 207.779C283.258 207.555 283.003 207.233 282.849 206.813C282.695 206.393 282.618 205.896 282.618 205.322V202.141C282.618 201.567 282.695 201.077 282.849 200.671C283.003 200.258 283.258 199.943 283.615 199.726C283.972 199.509 284.452 199.4 285.054 199.4C285.67 199.4 286.153 199.509 286.503 199.726C286.86 199.943 287.115 200.258 287.269 200.671C287.43 201.077 287.511 201.567 287.511 202.141V205.333C287.511 205.9 287.43 206.393 287.269 206.813C287.115 207.226 286.86 207.548 286.503 207.779C286.153 208.004 285.67 208.116 285.054 208.116ZM285.054 206.971C285.313 206.971 285.502 206.915 285.621 206.803C285.747 206.691 285.831 206.537 285.873 206.341C285.915 206.145 285.936 205.931 285.936 205.7V201.784C285.936 201.546 285.915 201.332 285.873 201.143C285.831 200.954 285.747 200.807 285.621 200.702C285.502 200.59 285.313 200.534 285.054 200.534C284.809 200.534 284.623 200.59 284.497 200.702C284.371 200.807 284.287 200.954 284.245 201.143C284.203 201.332 284.182 201.546 284.182 201.784V205.7C284.182 205.931 284.2 206.145 284.235 206.341C284.277 206.537 284.361 206.691 284.487 206.803C284.613 206.915 284.802 206.971 285.054 206.971Z" fill="#A4A4A4"/>
<path d="M234.951 232.116C234.349 232.116 233.869 232.004 233.512 231.779C233.155 231.555 232.9 231.233 232.746 230.813C232.592 230.393 232.515 229.896 232.515 229.322V226.141C232.515 225.567 232.592 225.077 232.746 224.671C232.9 224.258 233.155 223.943 233.512 223.726C233.869 223.509 234.349 223.4 234.951 223.4C235.567 223.4 236.05 223.509 236.4 223.726C236.757 223.943 237.012 224.258 237.166 224.671C237.327 225.077 237.408 225.567 237.408 226.141V229.333C237.408 229.9 237.327 230.393 237.166 230.813C237.012 231.226 236.757 231.548 236.4 231.779C236.05 232.004 235.567 232.116 234.951 232.116ZM234.951 230.971C235.21 230.971 235.399 230.915 235.518 230.803C235.644 230.691 235.728 230.537 235.77 230.341C235.812 230.145 235.833 229.931 235.833 229.7V225.784C235.833 225.546 235.812 225.332 235.77 225.143C235.728 224.954 235.644 224.807 235.518 224.702C235.399 224.59 235.21 224.534 234.951 224.534C234.706 224.534 234.52 224.59 234.394 224.702C234.268 224.807 234.184 224.954 234.142 225.143C234.1 225.332 234.079 225.546 234.079 225.784V229.7C234.079 229.931 234.097 230.145 234.132 230.341C234.174 230.537 234.258 230.691 234.384 230.803C234.51 230.915 234.699 230.971 234.951 230.971ZM239.502 232V223.495H241.592C241.97 223.495 242.309 223.53 242.61 223.6C242.918 223.67 243.181 223.789 243.398 223.957C243.622 224.118 243.793 224.338 243.912 224.618C244.031 224.898 244.091 225.252 244.091 225.679C244.091 226.022 244.042 226.316 243.944 226.561C243.853 226.806 243.716 227.002 243.534 227.149C243.352 227.289 243.125 227.383 242.852 227.432C243.188 227.488 243.464 227.607 243.681 227.789C243.905 227.964 244.07 228.195 244.175 228.482C244.287 228.769 244.343 229.116 244.343 229.522C244.343 229.928 244.29 230.288 244.185 230.603C244.087 230.911 243.937 231.17 243.734 231.38C243.538 231.583 243.289 231.737 242.988 231.842C242.694 231.947 242.348 232 241.949 232H239.502ZM241.056 230.908H241.644C242.113 230.908 242.432 230.796 242.6 230.572C242.768 230.341 242.852 229.987 242.852 229.511C242.852 229.168 242.81 228.892 242.726 228.682C242.649 228.465 242.516 228.304 242.327 228.199C242.145 228.094 241.9 228.041 241.592 228.041H241.056V230.908ZM241.056 226.97H241.581C241.889 226.97 242.127 226.925 242.295 226.834C242.463 226.743 242.579 226.603 242.642 226.414C242.712 226.225 242.747 225.987 242.747 225.7C242.747 225.399 242.694 225.168 242.589 225.007C242.491 224.839 242.341 224.727 242.138 224.671C241.935 224.608 241.676 224.576 241.361 224.576H241.056V226.97ZM246.292 232V223.495H249.862V224.587H247.846V227.033H249.431V228.115H247.846V230.929H249.883V232H246.292ZM253.87 232.116C253.359 232.116 252.932 232.018 252.589 231.821C252.246 231.618 251.987 231.324 251.812 230.939C251.637 230.554 251.539 230.082 251.518 229.522L252.851 229.259C252.865 229.588 252.904 229.879 252.967 230.131C253.037 230.383 253.138 230.579 253.271 230.719C253.411 230.852 253.593 230.918 253.817 230.918C254.069 230.918 254.248 230.845 254.353 230.698C254.458 230.544 254.51 230.351 254.51 230.12C254.51 229.749 254.426 229.445 254.258 229.207C254.09 228.969 253.866 228.731 253.586 228.493L252.515 227.548C252.214 227.289 251.973 227.002 251.791 226.687C251.616 226.365 251.528 225.969 251.528 225.5C251.528 224.828 251.724 224.31 252.116 223.946C252.508 223.582 253.044 223.4 253.723 223.4C254.122 223.4 254.454 223.463 254.72 223.589C254.986 223.708 255.196 223.876 255.35 224.093C255.511 224.31 255.63 224.559 255.707 224.839C255.784 225.112 255.833 225.402 255.854 225.71L254.531 225.941C254.517 225.675 254.486 225.437 254.437 225.227C254.395 225.017 254.314 224.853 254.195 224.734C254.083 224.615 253.915 224.555 253.691 224.555C253.46 224.555 253.282 224.632 253.156 224.786C253.037 224.933 252.977 225.119 252.977 225.343C252.977 225.63 253.037 225.868 253.156 226.057C253.275 226.239 253.446 226.428 253.67 226.624L254.731 227.558C255.081 227.852 255.378 228.199 255.623 228.598C255.875 228.99 256.001 229.466 256.001 230.026C256.001 230.432 255.91 230.792 255.728 231.107C255.553 231.422 255.305 231.671 254.983 231.853C254.668 232.028 254.297 232.116 253.87 232.116ZM257.903 232V223.495H259.436V232H257.903ZM261.698 232V223.495H263.704C264.397 223.495 264.936 223.589 265.321 223.778C265.713 223.967 265.989 224.258 266.15 224.65C266.318 225.042 266.402 225.539 266.402 226.141V229.249C266.402 229.865 266.318 230.379 266.15 230.792C265.989 231.198 265.716 231.503 265.331 231.706C264.953 231.902 264.432 232 263.767 232H261.698ZM263.252 230.918H263.725C264.082 230.918 264.337 230.855 264.491 230.729C264.645 230.603 264.74 230.421 264.775 230.183C264.81 229.938 264.827 229.641 264.827 229.291V226.036C264.827 225.693 264.803 225.416 264.754 225.206C264.705 224.996 264.603 224.842 264.449 224.744C264.295 224.646 264.047 224.597 263.704 224.597H263.252V230.918ZM267.996 232L269.697 223.495H271.356L273.057 232H271.618L271.282 230.036H269.802L269.455 232H267.996ZM269.959 229.049H271.114L270.537 225.479L269.959 229.049ZM274.857 232V223.495H276.863C277.556 223.495 278.095 223.589 278.48 223.778C278.872 223.967 279.148 224.258 279.309 224.65C279.477 225.042 279.561 225.539 279.561 226.141V229.249C279.561 229.865 279.477 230.379 279.309 230.792C279.148 231.198 278.875 231.503 278.49 231.706C278.112 231.902 277.591 232 276.926 232H274.857ZM276.411 230.918H276.884C277.241 230.918 277.496 230.855 277.65 230.729C277.804 230.603 277.899 230.421 277.934 230.183C277.969 229.938 277.986 229.641 277.986 229.291V226.036C277.986 225.693 277.962 225.416 277.913 225.206C277.864 224.996 277.762 224.842 277.608 224.744C277.454 224.646 277.206 224.597 276.863 224.597H276.411V230.918ZM281.647 232V223.495H285.217V224.587H283.201V227.033H284.786V228.115H283.201V230.929H285.238V232H281.647ZM290.623 232V223.495H292.156V232H290.623ZM294.46 232V223.495H295.993V232H294.46ZM298.296 232V223.495H299.829V232H298.296Z" fill="#A4A4A4"/>
<circle cx="28.5" cy="204.5" r="4.5" fill="#2E90BC"/>
<circle cx="28.5" cy="227.5" r="4.5" fill="#E58513"/>
<circle cx="118.5" cy="204.5" r="4.5" fill="#7EC627"/>
<circle cx="118.5" cy="227.5" r="4.5" fill="#DE3A25"/>
<circle cx="218.5" cy="204.5" r="4.5" fill="#E3BD13"/>
<circle cx="218.5" cy="227.5" r="4.5" fill="#7A29DD"/>
<defs>
<filter id="filter0_d_113_538" x="79.2159" y="56.7155" width="95.7841" height="126.285" filterUnits="userSpaceOnUse" color-interpolation-filters="sRGB">
<feFlood flood-opacity="0" result="BackgroundImageFix"/>
<feColorMatrix in="SourceAlpha" type="matrix" values="0 0 0 0 0 0 0 0 0 0 0 0 0 0 0 0 0 0 127 0" result="hardAlpha"/>
<feOffset dy="-4"/>
<feGaussianBlur stdDeviation="2"/>
<feComposite in2="hardAlpha" operator="out"/>
<feColorMatrix type="matrix" values="0 0 0 0 0 0 0 0 0 0 0 0 0 0 0 0 0 0 0.35 0"/>
<feBlend mode="normal" in2="BackgroundImageFix" result="effect1_dropShadow_113_538"/>
<feBlend mode="normal" in="SourceGraphic" in2="effect1_dropShadow_113_538" result="shape"/>
</filter>
<radialGradient id="paint0_radial_113_538" cx="0" cy="0" r="1" gradientUnits="userSpaceOnUse" gradientTransform="translate(160 171) rotate(-90) scale(125.49 120)">
<stop offset="0.494063" stop-color="#BDE864"/>
<stop offset="1" stop-color="#BDE864" stop-opacity="0"/>
</radialGradient>
</defs>
</svg>
