<svg width="127" height="19" viewBox="0 0 127 19" fill="none" xmlns="http://www.w3.org/2000/svg">
<path d="M82.2114 4.125H77.2427L74.8403 18.0117H70.8208L73.2349 4.125H68.3481L68.9106 0.949219H82.7622L82.2114 4.125Z" fill="#BDE864"/>
<path d="M89.3017 8.90625C88.8877 8.84375 88.4892 8.80469 88.1064 8.78906C86.9502 8.75781 86.0674 9.15625 85.458 9.98438L84.0283 18.0117H80.1728L82.376 5.33203L85.9736 5.32031L85.6806 6.98438C86.5088 5.70312 87.4853 5.0625 88.6103 5.0625C88.9306 5.0625 89.3291 5.11719 89.8056 5.22656L89.3017 8.90625Z" fill="#BDE864"/>
<path d="M95.4194 18.0117C95.31 17.707 95.2553 17.3242 95.2553 16.8633C94.3881 17.8164 93.353 18.2773 92.1499 18.2461C91.0483 18.2305 90.1342 17.8633 89.4077 17.1445C88.6811 16.4258 88.3413 15.5547 88.3881 14.5312C88.4272 13.1562 89.0014 12.1016 90.1108 11.3672C91.2202 10.625 92.7358 10.2539 94.6577 10.2539L95.9467 10.2773L96.0874 9.5625L96.1342 8.94141C96.103 8.23047 95.7475 7.86328 95.0678 7.83984C94.2241 7.82422 93.7046 8.28906 93.5092 9.23438L89.6421 9.24609C89.6811 8.39453 89.9585 7.65625 90.4741 7.03125C90.9897 6.39844 91.6889 5.91406 92.5717 5.57812C93.4624 5.23438 94.4077 5.07422 95.4077 5.09766C96.3686 5.12109 97.2085 5.32422 97.9272 5.70703C98.6538 6.08203 99.1967 6.60938 99.5561 7.28906C99.9155 7.96094 100.052 8.73828 99.9663 9.62109L99.0171 15.5859L98.9585 16.3125C98.9272 16.8906 99.0014 17.3828 99.1811 17.7891L99.1694 18.0117H95.4194ZM93.2163 15.457C94.0053 15.4883 94.6967 15.1406 95.2905 14.4141L95.6772 12.375L94.6811 12.3633C94.0639 12.3789 93.5327 12.5625 93.0874 12.9141C92.6421 13.2578 92.3803 13.7305 92.3022 14.332C92.2631 14.6523 92.3217 14.918 92.478 15.1289C92.6421 15.332 92.8881 15.4414 93.2163 15.457Z" fill="#BDE864"/>
<path d="M106.131 15.2109C106.685 15.2266 107.119 15.0742 107.432 14.7539C107.744 14.4258 107.943 14.0039 108.029 13.4883L111.639 13.4766C111.592 14.4062 111.314 15.2383 110.807 15.9727C110.307 16.707 109.627 17.2773 108.768 17.6836C107.916 18.082 107.002 18.2695 106.025 18.2461C104.338 18.2148 103.037 17.6094 102.123 16.4297C101.209 15.2422 100.838 13.7109 101.01 11.8359L101.045 11.5547C101.185 10.2734 101.545 9.14062 102.123 8.15625C102.701 7.16406 103.459 6.39844 104.396 5.85938C105.342 5.32031 106.396 5.06641 107.56 5.09766C109.037 5.12891 110.201 5.60156 111.053 6.51562C111.912 7.42188 112.326 8.64844 112.295 10.1953L108.685 10.1836C108.725 8.83984 108.244 8.15625 107.244 8.13281C105.885 8.08594 105.103 9.23047 104.9 11.5664L104.795 12.7617L104.783 13.207C104.783 14.5195 105.232 15.1875 106.131 15.2109Z" fill="#BDE864"/>
<path d="M117.873 13.3359L116.467 14.5547L115.87 18.0117H112.014L115.143 0H118.998L117.217 9.60938L117.686 9.04688L121.19 5.33203H126.077L120.686 10.7227L123.955 18.0117H119.725L117.873 13.3359Z" fill="#BDE864"/>
<path d="M13.8883 18.0117H9.90393L11.1344 10.8867H5.28674L4.04456 18.0117H0.0367432L2.98987 0.949219H7.0094L5.82581 7.72266H11.6852L12.8571 0.949219H16.8531L13.8883 18.0117Z" fill="#F4F4F6"/>
<path d="M22.1622 18.2461C21.0294 18.2383 20.0177 17.9727 19.1271 17.4492C18.2442 16.918 17.5763 16.1836 17.1231 15.2461C16.67 14.3008 16.4903 13.2617 16.5841 12.1289L16.6192 11.8008C16.8302 9.71484 17.5528 8.06641 18.7872 6.85547C20.0294 5.63672 21.5489 5.05078 23.3458 5.09766C24.4317 5.11328 25.3614 5.39062 26.1349 5.92969C26.9083 6.46094 27.4747 7.19922 27.8341 8.14453C28.1935 9.08203 28.3106 10.1367 28.1856 11.3086L27.963 12.9141H20.4161C20.4317 13.5781 20.6192 14.1172 20.9786 14.5312C21.338 14.9453 21.8614 15.1641 22.5489 15.1875C23.6661 15.2188 24.67 14.7891 25.5606 13.8984L27.1778 16.043C26.7013 16.7227 26.0333 17.2578 25.1739 17.6484C24.3224 18.0312 23.3888 18.2305 22.3731 18.2461H22.1622ZM23.0997 8.13281C22.5528 8.11719 22.0763 8.28906 21.67 8.64844C21.2716 9.00781 20.9239 9.60938 20.6271 10.4531H24.4825L24.5528 10.1133C24.5997 9.83984 24.6075 9.58203 24.5763 9.33984C24.4435 8.55859 23.9513 8.15625 23.0997 8.13281Z" fill="#F4F4F6"/>
<path d="M35.3228 18.0117C35.2135 17.707 35.1588 17.3242 35.1588 16.8633C34.2916 17.8164 33.2564 18.2773 32.0533 18.2461C30.9517 18.2305 30.0377 17.8633 29.3111 17.1445C28.5846 16.4258 28.2447 15.5547 28.2916 14.5312C28.3307 13.1562 28.9049 12.1016 30.0142 11.3672C31.1236 10.625 32.6392 10.2539 34.5611 10.2539L35.8502 10.2773L35.9908 9.5625L36.0377 8.94141C36.0064 8.23047 35.651 7.86328 34.9713 7.83984C34.1275 7.82422 33.608 8.28906 33.4127 9.23438L29.5455 9.24609C29.5846 8.39453 29.8619 7.65625 30.3775 7.03125C30.8932 6.39844 31.5924 5.91406 32.4752 5.57812C33.3658 5.23438 34.3111 5.07422 35.3111 5.09766C36.2721 5.12109 37.1119 5.32422 37.8307 5.70703C38.5572 6.08203 39.1002 6.60938 39.4596 7.28906C39.8189 7.96094 39.9557 8.73828 39.8697 9.62109L38.9205 15.5859L38.8619 16.3125C38.8307 16.8906 38.9049 17.3828 39.0846 17.7891L39.0728 18.0117H35.3228ZM33.1197 15.457C33.9088 15.4883 34.6002 15.1406 35.1939 14.4141L35.5807 12.375L34.5846 12.3633C33.9674 12.3789 33.4361 12.5625 32.9908 12.9141C32.5455 13.2578 32.2838 13.7305 32.2057 14.332C32.1666 14.6523 32.2252 14.918 32.3814 15.1289C32.5455 15.332 32.7916 15.4414 33.1197 15.457Z" fill="#F4F4F6"/>
<path d="M44.2296 18.0117H40.3624L43.4796 0.0117188H47.3467L44.2296 18.0117Z" fill="#F4F4F6"/>
<path d="M53.4292 2.17969L52.8785 5.33203H54.9058L54.4253 8.07422H52.398L51.4136 13.8984C51.3589 14.2969 51.3824 14.5977 51.4839 14.8008C51.5933 15.0039 51.8589 15.1133 52.2808 15.1289C52.4449 15.1367 52.7808 15.1172 53.2886 15.0703L53.0074 17.9297C52.3589 18.1406 51.6675 18.2383 50.9332 18.2227C49.7378 18.207 48.8433 17.8555 48.2496 17.168C47.6558 16.4805 47.4136 15.5469 47.523 14.3672L48.5542 8.07422H46.9839L47.4527 5.33203H49.023L49.5738 2.17969H53.4292Z" fill="#F4F4F6"/>
<path d="M59.4063 6.71484C60.3516 5.61328 61.4414 5.07031 62.6758 5.08594C63.9492 5.11719 64.8906 5.58203 65.5 6.48047C66.1172 7.37891 66.3399 8.59766 66.168 10.1367L64.8555 18.0117H61L62.3242 10.0898C62.3555 9.82422 62.3633 9.57422 62.3477 9.33984C62.293 8.56641 61.8633 8.16797 61.0586 8.14453C60.3633 8.12891 59.7461 8.38281 59.2071 8.90625L57.5899 18.0117H53.7344L56.8633 0.0117188H60.7188L59.4063 6.71484Z" fill="#F4F4F6"/>
</svg>
