<svg width="106" height="106" viewBox="0 0 106 106" fill="none" xmlns="http://www.w3.org/2000/svg">
<circle cx="53" cy="53" r="52.4" fill="black" stroke="#BDE864" stroke-width="1.2"/>
<circle cx="53" cy="53" r="47" fill="#282833"/>
<path d="M79.6666 80V73.3333C79.6666 69.7971 78.2619 66.4057 75.7614 63.9052C73.2609 61.4048 69.8695 60 66.3333 60H39.6666C36.1304 60 32.739 61.4048 30.2386 63.9052C27.7381 66.4057 26.3333 69.7971 26.3333 73.3333V80" stroke="#BDE864" stroke-width="2.5" stroke-linecap="round" stroke-linejoin="round"/>
<path d="M53 46.6667C60.3638 46.6667 66.3334 40.6971 66.3334 33.3333C66.3334 25.9695 60.3638 20 53 20C45.6362 20 39.6667 25.9695 39.6667 33.3333C39.6667 40.6971 45.6362 46.6667 53 46.6667Z" stroke="#BDE864" stroke-width="2.5" stroke-linecap="round" stroke-linejoin="round"/>
</svg>
